<?xml version="1.0" standalone="no"?>
<!DOCTYPE svg PUBLIC "-//W3C//DTD SVG 20010904//EN"
 "http://www.w3.org/TR/2001/REC-SVG-20010904/DTD/svg10.dtd">
<svg version="1.0" xmlns="http://www.w3.org/2000/svg"
 width="512.000000pt" height="512.000000pt" viewBox="0 0 512.000000 512.000000"
 preserveAspectRatio="xMidYMid meet">

<g transform="translate(0.000000,512.000000) scale(0.100000,-0.100000)"
fill="#000000" stroke="none">
<path d="M1380 3760 l0 -1059 -37 -6 c-94 -15 -187 -38 -243 -60 -261 -102
-470 -317 -562 -579 -161 -454 35 -960 459 -1182 170 -90 292 -114 574 -114
l199 0 0 1355 0 1355 1245 0 1245 0 0 -215 c0 -118 -2 -215 -4 -215 -2 0 -41
18 -88 40 -123 57 -200 74 -348 74 -155 0 -230 -17 -365 -84 -211 -104 -361
-285 -427 -517 -32 -112 -32 -314 0 -426 83 -290 311 -513 598 -584 94 -23
294 -23 389 0 91 23 235 92 313 152 105 79 209 222 259 354 55 145 53 99 53
1487 l0 1284 -1630 0 -1630 0 0 -1060z"/>
<path d="M3610 1175 c-27 -44 -142 -151 -212 -197 -258 -171 -621 -270 -1045
-285 l-183 -6 0 -195 0 -195 183 6 c619 20 1120 192 1436 492 85 82 191 218
191 247 0 9 -68 44 -175 90 l-174 76 -21 -33z"/>
</g>
</svg>
